# xmcd CD database file
#
# Track frame offsets:
#	150
#	21621
#	43180
#	61828
#	85255
#	106858
#	136912
#	156160
#	178766
#	198737
#	217127
#	239899
#
# Disc length: 3461 seconds
#
# Revision: 0
# Processed by: cddbd v1.5.1PL2 Copyright (c) Steve Scherf et al.
# Submitted via: CDex 1.51
#
DISCID=b70d830c
DTITLE=Stacey Kent - The Tender Trap
DYEAR=1998
DGENRE=Jazz
TTITLE0=01.Stacey Kent - the tender trap
TTITLE1=02.Stacey Kent - i didn't know about you
TTITLE2=03.Stacey Kent - comes love
TTITLE3=04.Stacey Kent - in the steel of the night
TTITLE4=05.Stacey Kent - fools rush in
TTITLE5=06.Stacey Kent - east of the sun
TTITLE6=07.Stacey Kent - zing - went the strings of my h
TTITLE7=08.Stacey Kent - they say it's wonderful
TTITLE8=09.Stacey Kent - don't be that way
TTITLE9=10.Stacey Kent - they all laughed
TTITLE10=11.Stacey Kent - in the wee small hours of the
TTITLE11=12.Stacey Kent - it's a wonderful world
EXTD=YEAR: 1998
EXTT0=
EXTT1=
EXTT2=
EXTT3=
EXTT4=
EXTT5=
EXTT6=
EXTT7=
EXTT8=
EXTT9=
EXTT10=
EXTT11=
PLAYORDER=
